Coordinates
version=1
nRows=31
nColumns=38
inDegrees=no

Units are S.I. units (second, meters, Newtons, ...)
If the header above contains a line with 'inDegrees', this indicates whether rotational values are in degrees (yes) or radians (no).

endheader
time	pelvis_tilt	pelvis_list	pelvis_rotation	pelvis_tx	pelvis_ty	pelvis_tz	hip_flexion_r	hip_adduction_r	hip_rotation_r	knee_angle_r	ankle_angle_r	subtalar_angle_r	mtp_angle_r	hip_flexion_l	hip_adduction_l	hip_rotation_l	knee_angle_l	ankle_angle_l	subtalar_angle_l	mtp_angle_l	lumbar_extension	lumbar_bending	lumbar_rotation	arm_flex_r	arm_add_r	arm_rot_r	elbow_flex_r	pro_sup_r	wrist_flex_r	wrist_dev_r	arm_flex_l	arm_add_l	arm_rot_l	elbow_flex_l	pro_sup_l	wrist_flex_l	wrist_dev_l
1.67	2.77667	1.44508	2.46693	0.739598	1.15556	0.92626	-0.108939	0.0591125	-0.251183	0.00869379	0.108001	0	0	0.494606	0.110471	-0.259847	0.304533	-0.000923846	0	0	-0.413632	-0.0289613	0.405109	0.976472	-0.28793	0.252991	0.81896	1.5708	0	0	-0.175031	-0.343644	0.555838	0.77396	1.26578	0	0
1.68	2.7879	1.44743	2.44829	0.739949	1.14988	0.925284	-0.116993	0.0642284	-0.24502	0.00575603	0.110083	0	0	0.496339	0.112107	-0.259918	0.290912	-0.00174623	0	0	-0.413247	-0.0291127	0.408426	0.978836	-0.281907	0.251795	0.815371	1.5708	0	0	-0.170791	-0.344379	0.555299	0.77475	1.26185	0	0
1.69	2.80304	1.44982	2.4258	0.740387	1.14417	0.924235	-0.124509	0.069306	-0.239536	0.00361996	0.112538	0	0	0.497806	0.113414	-0.258541	0.277998	-0.00192789	0	0	-0.41236	-0.0287911	0.411921	0.981145	-0.276385	0.252246	0.812217	1.5708	0	0	-0.166312	-0.345452	0.556556	0.774927	1.26215	0	0
1.7	2.8198	1.45195	2.40177	0.740892	1.13845	0.923139	-0.131468	0.0739487	-0.234426	0.0023146	0.115433	0	0	0.498729	0.114724	-0.254957	0.265427	-0.00199287	0	0	-0.411208	-0.0284362	0.415314	0.983573	-0.271313	0.253644	0.809139	1.5708	0	0	-0.162121	-0.346261	0.554317	0.776107	1.25674	0	0
1.71	2.83766	1.4537	2.37662	0.741408	1.13264	0.921989	-0.137922	0.0781699	-0.22954	0.00174954	0.118799	0	0	0.499085	0.115979	-0.250279	0.253071	-0.00206417	0	0	-0.40953	-0.0284271	0.418472	0.985979	-0.26595	0.254873	0.805326	1.5708	0	0	-0.15843	-0.347212	0.549248	0.778723	1.24442	0	0
1.72	2.85465	1.45522	2.35235	0.741974	1.12675	0.920814	-0.14414	0.0819317	-0.22488	0.00205521	0.122689	0	0	0.498637	0.117203	-0.244629	0.241181	-0.00159067	0	0	-0.407597	-0.0287568	0.421684	0.988025	-0.260454	0.25488	0.801567	1.5708	0	0	-0.154538	-0.348818	0.54698	0.781324	1.23836	0	0
1.73	2.87109	1.45664	2.32861	0.742589	1.12077	0.919628	-0.150016	0.0853194	-0.220539	0.00349878	0.127109	0	0	0.497308	0.118286	-0.238529	0.229774	-0.00118389	0	0	-0.405473	-0.029274	0.424949	0.990066	-0.255184	0.25372	0.797901	1.5708	0	0	-0.150844	-0.350799	0.545061	0.783473	1.23781	0	0
1.74	2.8877	1.45796	2.30479	0.743264	1.11467	0.918408	-0.155546	0.0884866	-0.216762	0.00608175	0.132116	0	0	0.495162	0.119269	-0.231986	0.218958	-0.000832123	0	0	-0.403084	-0.0298611	0.428141	0.992053	-0.250344	0.254034	0.794264	1.5708	0	0	-0.14758	-0.353182	0.543414	0.785131	1.24268	0	0
1.75	2.91772	1.4555	2.2717	0.743863	1.10919	0.917133	-0.154727	0.0905639	-0.217005	0.0117713	0.13786	0	0	0.500551	0.123219	-0.19167	0.235222	0.0856861	0	0	-0.398181	-0.0310925	0.427228	0.995377	-0.2455	0.254523	0.789595	1.5708	0	0	-0.142688	-0.355783	0.541163	0.785458	1.25231	0	0
1.76	2.91981	1.45982	2.25925	0.744803	1.10214	0.915853	-0.165092	0.0938154	-0.21116	0.0143777	0.143087	0	0	0.48915	0.121315	-0.216184	0.201022	0.00182232	0	0	-0.397228	-0.0315178	0.433419	0.996083	-0.241315	0.256365	0.785193	1.5708	0	0	-0.142956	-0.358561	0.533474	0.790481	1.24699	0	0
1.77	2.94331	1.45712	2.23286	0.74552	1.09641	0.914572	-0.163681	0.0950097	-0.212822	0.0226541	0.149719	0	0	0.492897	0.12488	-0.176164	0.220271	0.0892242	0	0	-0.3923	-0.0334958	0.432176	0.998762	-0.237104	0.253615	0.780935	1.5708	0	0	-0.139284	-0.361597	0.52683	0.793908	1.24105	0	0
1.78	2.94246	1.46122	2.22372	0.746666	1.08916	0.913283	-0.173357	0.0972905	-0.208122	0.02778	0.155968	0	0	0.480838	0.123164	-0.200285	0.190643	0.00735953	0	0	-0.391008	-0.0343968	0.438186	0.998623	-0.23398	0.25016	0.777273	1.5708	0	0	-0.139908	-0.364955	0.521838	0.7979	1.23904	0	0
1.79	2.94828	1.46316	2.21165	0.747718	1.08259	0.912051	-0.17892	0.0990934	-0.205719	0.0349065	0.161961	0	0	0.475706	0.123053	-0.194215	0.190733	0.0113112	0	0	-0.390686	-0.0355176	0.444009	1.0069	-0.23326	0.248238	0.76986	1.5708	0	0	-0.135003	-0.368616	0.52358	0.799226	1.24077	0	0
1.8	2.95376	1.46398	2.2002	0.748801	1.07568	0.910782	-0.183284	0.100033	-0.205205	0.0434434	0.168624	0	0	0.470974	0.123086	-0.189433	0.193221	0.0142049	0	0	-0.387453	-0.0375593	0.445986	1.00635	-0.229696	0.246105	0.767032	1.5708	0	0	-0.133601	-0.372945	0.523045	0.800221	1.24421	0	0
1.81	2.96085	1.4634	2.18742	0.749917	1.06849	0.909464	-0.185948	0.10012	-0.20591	0.0534189	0.175661	0	0	0.467103	0.12321	-0.185508	0.198067	0.015505	0	0	-0.381275	-0.0403827	0.444508	0.997066	-0.222491	0.248588	0.769626	1.5708	0	0	-0.135887	-0.377144	0.51354	0.802574	1.24134	0	0
1.82	2.95554	1.46514	2.18714	0.751175	1.06136	0.908324	-0.190461	0.0998659	-0.207987	0.0655905	0.18344	0	0	0.459639	0.123329	-0.179171	0.203522	0.0155975	0	0	-0.380601	-0.0429398	0.448591	1.00332	-0.222125	0.241467	0.763339	1.5708	0	0	-0.132666	-0.381205	0.511345	0.803683	1.23642	0	0
1.83	2.95304	1.46405	2.18433	0.7525	1.05381	0.907108	-0.192112	0.098077	-0.210868	0.0789825	0.191156	0	0	0.452755	0.125022	-0.171395	0.206461	0.013969	0	0	-0.373985	-0.04695	0.446053	0.99264	-0.214665	0.248714	0.767579	1.5708	0	0	-0.135077	-0.386224	0.506833	0.803265	1.23111	0	0
1.84	2.94386	1.46384	2.18818	0.753873	1.04629	0.905988	-0.193713	0.0956953	-0.214467	0.094821	0.199157	0	0	0.443947	0.126886	-0.163484	0.208111	0.0141552	0	0	-0.369936	-0.0511854	0.4462	0.989732	-0.211523	0.253262	0.768836	1.5708	0	0	-0.134405	-0.391285	0.50705	0.801641	1.22732	0	0
1.85	2.93687	1.46042	2.19051	0.755115	1.03867	0.904826	-0.188778	0.0916271	-0.213661	0.120351	0.209476	0	0	0.436685	0.130747	-0.153751	0.20664	0.0139949	0	0	-0.362765	-0.0588386	0.445459	0.975842	-0.194098	0.0532583	0.835514	0.765825	0	0	-0.132571	-0.398871	0.512813	0.799919	1.21533	0	0
1.86	2.92356	1.45981	2.19865	0.756729	1.03065	0.903801	-0.191111	0.0875277	-0.223034	0.133196	0.214639	0	0	0.425732	0.133318	-0.149948	0.20266	0.0144202	0	0	-0.357404	-0.0638849	0.44519	0.972589	-0.189086	0.0459253	0.831481	0.748449	0	0	-0.132732	-0.40429	0.512852	0.796623	1.2156	0	0
1.87	2.90105	1.45964	2.21719	0.758378	1.02276	0.902996	-0.190724	0.0825473	-0.228516	0.155697	0.220994	0	0	0.412942	0.136997	-0.146358	0.195419	0.00945678	0	0	-0.354004	-0.0695785	0.443288	0.969192	-0.183271	0.0365437	0.828578	0.732855	0	0	-0.132381	-0.410134	0.513776	0.793378	1.21636	0	0
1.88	2.87623	1.46	2.23908	0.760126	1.01479	0.902388	-0.189298	0.0769755	-0.236377	0.181712	0.226552	0	0	0.399435	0.140388	-0.144932	0.186511	-0.00139796	0	0	-0.351322	-0.0751225	0.440536	0.964992	-0.17699	0.0245068	0.826786	0.718563	0	0	-0.131865	-0.416141	0.515606	0.789775	1.21781	0	0
1.89	2.84605	1.46044	2.26774	0.762011	1.0069	0.902066	-0.186305	0.0701523	-0.246551	0.211803	0.230686	0	0	0.386233	0.144248	-0.142703	0.178347	-0.0160708	0	0	-0.349669	-0.0806555	0.436241	0.961092	-0.170537	0.0111896	0.824783	0.705325	0	0	-0.13111	-0.421401	0.51681	0.785511	1.21981	0	0
1.9	2.8108	1.46082	2.30293	0.763957	0.999187	0.902137	-0.181038	0.0617693	-0.258962	0.24671	0.232345	0	0	0.375129	0.148157	-0.138526	0.175842	-0.0274176	0	0	-0.349271	-0.086496	0.430298	0.958535	-0.164835	0.000281478	0.82124	0.69275	0	0	-0.129601	-0.426361	0.518549	0.78049	1.22403	0	0
1.91	2.77196	1.46131	2.34333	0.765895	0.991623	0.902616	-0.173838	0.0522741	-0.272029	0.28571	0.230591	0	0	0.368049	0.151319	-0.134998	0.184538	-0.0274975	0	0	-0.350246	-0.0924656	0.422896	0.95677	-0.160006	-0.00909151	0.817214	0.681118	0	0	-0.127258	-0.431328	0.5217	0.774949	1.2314	0	0
1.92	2.73567	1.4622	2.38235	0.767776	0.984063	0.903395	-0.164401	0.0422532	-0.285117	0.328797	0.224608	0	0	0.365574	0.152378	-0.134828	0.205505	-0.0141949	0	0	-0.351872	-0.0978696	0.41472	0.955201	-0.154857	-0.0199205	0.813197	0.670236	0	0	-0.124714	-0.436826	0.528006	0.769324	1.24426	0	0
1.93	2.71318	1.46363	2.40825	0.76965	0.976409	0.904297	-0.151884	0.0323485	-0.298356	0.376042	0.213619	0	0	0.366279	0.15039	-0.137626	0.233215	0.00605505	0	0	-0.352613	-0.101538	0.406577	0.953333	-0.149876	-0.0302696	0.808913	0.659302	0	0	-0.123201	-0.442086	0.530561	0.765659	1.25592	0	0
1.94	2.70834	1.46552	2.41698	0.77168	0.968723	0.905231	-0.135789	0.0221212	-0.311644	0.427759	0.196989	0	0	0.366724	0.146513	-0.139535	0.258427	0.0244881	0	0	-0.351788	-0.102927	0.398795	0.950627	-0.145849	-0.0388899	0.804395	0.649197	0	0	-0.12329	-0.445903	0.527521	0.763818	1.26227	0	0
1.95	2.71569	1.46725	2.41409	0.773952	0.96112	0.906171	-0.115211	0.00956171	-0.326584	0.485628	0.173842	0	0	0.364421	0.142877	-0.139025	0.275513	0.0376	0	0	-0.349409	-0.102734	0.391148	0.947711	-0.142986	-0.0461696	0.798394	0.637843	0	0	-0.123922	-0.449889	0.52785	0.76198	1.26903	0	0
1.96	2.88017	1.47408	2.25369	0.777017	0.953056	0.904906	-0.0844722	0.00952439	-0.340374	0.54917	0.142206	0	0	0.366578	0.130036	-0.119794	0.289353	0.0590558	0	0	-0.334098	-0.0845653	0.390082	0.941409	-0.143616	-0.0446328	0.790703	0.61745	0	0	-0.131708	-0.45373	0.534298	0.763253	1.28401	0	0
1.97	2.75468	1.46697	2.38475	0.779153	0.946279	0.907568	-0.0586683	-0.0263563	-0.3577	0.617179	0.102394	0	0	0.352722	0.14132	-0.131814	0.284113	0.0506816	0	0	-0.338319	-0.101653	0.377365	0.940911	-0.141583	-0.0550593	0.78296	0.593369	0	0	-0.125321	-0.460288	0.543554	0.761454	1.2949	0	0
